<?xml version="1.0" encoding="iso-8859-1"?>
<!-- Uploaded to: SVG Repo, www.svgrepo.com, Generator: SVG Repo Mixer Tools -->
<svg fill="#000000" height="800px" width="800px" version="1.1" id="Layer_1" xmlns="http://www.w3.org/2000/svg" xmlns:xlink="http://www.w3.org/1999/xlink" 
	 viewBox="0 0 512 512" xml:space="preserve">
<g>
	<g>
		<path d="M446.105,407.197c-28.909-7.921-59.335-10.557-131.074-13.457c-9.44-0.38-14.468-0.582-19.042-0.77
			c-0.985-0.041-1.946-0.08-2.893-0.12c-2.353-10.578-5.231-21.944-8.738-34.032c-1.781-6.137-3.671-12.266-5.662-18.377
			c4.5-11.284,9.763-23.347,15.738-36.105c6.315-13.485,13.343-27.586,20.963-42.148c11.844-22.635,24.533-45.291,37.39-67.174
			c1.705-2.902,3.814-6.446,6.008-10.113c5.477,3.218,9.971,11.26,12.045,23.814c2.75,16.646-1.147,32.982-5.715,36.19
			c-9.642,6.772-11.968,20.077-5.196,29.719c6.772,9.642,20.077,11.968,29.719,5.196c18.887-13.265,26.791-39.702,24.945-66.006
			c7.648,9.616,12.33,20.615,12.33,31.652c0,11.782,9.551,21.333,21.333,21.333c11.782,0,21.333-9.551,21.333-21.333
			c0-30.6-16.884-58.688-41.613-78.074c22.193,4.69,41.357,15.636,41.357,28.133c0,11.782,9.551,21.333,21.333,21.333
			S512,207.306,512,195.524c0-49.005-65.941-78.678-120.728-72.297c5.73-39.994-5.692-83.8-29.382-96.387
			c-10.405-5.528-23.321-1.575-28.849,8.829c-5.528,10.405-1.575,23.321,8.829,28.849c4.146,2.203,7.441,14.476,8.179,29.364
			c-18.721-22.569-46.599-36.909-77.86-36.909c-11.782,0-21.333,9.551-21.333,21.333c0,11.782,9.551,21.333,21.333,21.333
			c10.934,0,21.194,3.095,30.024,8.487c-24.406,2.791-48.699,14.541-62.828,32.1c-7.386,9.179-5.933,22.608,3.246,29.995
			c9.179,7.386,22.608,5.933,29.995-3.246c7.74-9.619,25.376-16.969,41.103-16.828c6.793,0.061,11.383,1.108,14.242,3.208
			c-3.99,6.619-8.686,14.453-11.972,20.046c-13.189,22.447-26.21,45.697-38.407,69.006c-7.493,14.319-14.443,28.239-20.771,41.658
			c-4.19-9.184-8.654-18.252-13.426-27.157c-26.642-49.716-60.198-90.081-101.658-117.748c3.73-2.039,8.457-3.63,14.171-4.639
			c15.586-2.751,30.697,1.104,33.723,5.709c6.471,9.846,19.699,12.582,29.545,6.11c9.846-6.471,12.581-19.699,6.11-29.545
			c-11.836-18.008-34.529-26.409-58.05-26.281c7.499-4.255,15.677-6.695,24.031-6.695c11.782,0,21.333-9.551,21.333-21.333
			c0-11.782-9.551-21.333-21.333-21.333c-33.433,0-63.362,19.095-82.073,46.984c0.82-18.918,8.059-34.674,18.819-34.674
			c11.782,0,21.333-9.551,21.333-21.333c0-11.782-9.551-21.333-21.333-21.333c-46.958,0-67.983,52.799-59.821,101.592
			c-24.246-0.57-47.177,11.74-64.087,34.911c-6.946,9.517-4.861,22.863,4.656,29.808c9.517,6.946,22.863,4.861,29.808-4.656
			c4.023-5.513,8.323-9.765,12.87-12.692C24.325,186.35,5.779,228.052,5.779,265.788c0,11.782,9.551,21.333,21.333,21.333
			c11.782,0,21.333-9.551,21.333-21.333c0-14.764,4.541-30.799,11.642-45.232c4.755,19.633,14.679,37.942,28.268,49.617
			c8.936,7.679,22.405,6.659,30.084-2.277c7.679-8.936,6.659-22.405-2.277-30.084c-9.413-8.088-16.693-26.755-16.552-43.509
			c0.118-14.026,3.86-19.361,10.716-19.371c0.008,0,0.016,0.001,0.024,0.001c0.113,0,0.222-0.015,0.335-0.017
			c0.307-0.005,0.612-0.018,0.919-0.036c0.228-0.013,0.455-0.024,0.682-0.045c0.185-0.017,0.369-0.038,0.553-0.059
			c0.259-0.03,0.516-0.07,0.774-0.11c0.246-0.038,0.491-0.074,0.735-0.121c0.197-0.037,0.392-0.077,0.587-0.12
			c0.225-0.049,0.447-0.109,0.67-0.165c0.256-0.065,0.512-0.129,0.767-0.204c0.182-0.053,0.363-0.106,0.543-0.164
			c35.587,23.444,65.073,58.756,88.873,103.168c11.871,22.152,21.794,45.565,29.947,69.419c0.049,0.15,0.1,0.299,0.153,0.448
			c2.688,7.888,5.185,15.824,7.492,23.778c2.141,7.381,4.025,14.459,5.683,21.219l-7.06-0.052
			c-5.493,0.165-10.309,0.317-15.978,0.491c-7.48,0.227-7.48,0.227-14.873,0.45c-77.527,2.344-109.537,4.706-140.5,12.549
			C25.646,416.762,0,440.49,0,479.872c0,11.782,9.551,21.333,21.333,21.333h469.333c11.782,0,21.333-9.551,21.333-21.333
			C512,442.016,488.109,418.705,446.105,407.197z M52.734,458.539c18.314-14.504,64.338-20.195,159.709-23.078
			c7.386-0.222,7.386-0.222,14.89-0.451c5.528-0.169,10.255-0.319,14.801-0.469l33.061,0.23c0.079,0.001,0.158,0.004,0.237,0.004
			c5.226,0.254,11.473,0.523,18.803,0.824c4.595,0.189,9.645,0.392,19.073,0.771c85.685,3.464,127.907,9.046,145.498,22.167H52.734z
			"/>
	</g>
</g>
</svg>