<!DOCTYPE svg PUBLIC "-//W3C//DTD SVG 1.1//EN" "http://www.w3.org/Graphics/SVG/1.1/DTD/svg11.dtd">
<!-- Uploaded to: SVG Repo, www.svgrepo.com, Transformed by: SVG Repo Mixer Tools -->
<svg fill="#000000" height="800px" width="800px" version="1.1" id="Layer_1" xmlns="http://www.w3.org/2000/svg" xmlns:xlink="http://www.w3.org/1999/xlink" viewBox="0 0 512 512" xml:space="preserve">
<g id="SVGRepo_bgCarrier" stroke-width="0"/>
<g id="SVGRepo_tracerCarrier" stroke-linecap="round" stroke-linejoin="round"/>
<g id="SVGRepo_iconCarrier"> <g> <g> <path d="M438.468,0c-40.546,0-73.532,32.986-73.532,73.532s32.986,73.532,73.532,73.532S512,114.078,512,73.532 S479.014,0,438.468,0z M438.468,130.723c-31.535,0-57.191-25.656-57.191-57.191s25.657-57.191,57.191-57.191 s57.191,25.656,57.191,57.191S470.003,130.723,438.468,130.723z"/> </g> </g> <g> <g> <path d="M422.128,310.468H299.574c-4.513,0-8.17,3.658-8.17,8.17s3.657,8.17,8.17,8.17h122.553c4.513,0,8.17-3.658,8.17-8.17 S426.641,310.468,422.128,310.468z"/> </g> </g> <g> <g> <path d="M476.596,256H358.538c-3.698-15.596-17.742-27.234-34.453-27.234h-57.191v-35.404c0-22.526-18.325-40.851-40.851-40.851 h-32.681c-22.526,0-40.851,18.325-40.851,40.851v35.404h-27.234V128c0-22.526-18.325-40.851-40.851-40.851H73.532 c-22.526,0-40.851,18.325-40.851,40.851v218.946L3.638,366.309C1.365,367.823,0,370.374,0,373.106V503.83 c0,4.512,3.657,8.17,8.17,8.17s8.17-3.658,8.17-8.17V377.479l16.34-10.894v39.528c0,4.512,3.657,8.17,8.17,8.17 s8.17-3.658,8.17-8.17v-54.739c0-0.026,0-204.31,0-204.31h27.234v57.191c0,4.512,3.657,8.17,8.17,8.17s8.17-3.658,8.17-8.17 v-57.191h16.34V503.83c0,4.512,3.657,8.17,8.17,8.17c4.513,0,8.17-3.658,8.17-8.17V326.809h27.234V503.83 c0,4.512,3.657,8.17,8.17,8.17s8.17-3.658,8.17-8.17V212.426h81.702v65.524c0,0.5,0.046,1,0.137,1.492l21.65,116.53V503.83 c0,4.512,3.657,8.17,8.17,8.17c4.513,0,8.17-3.658,8.17-8.17v-95.036l27.234,14.43v80.606c0,4.512,3.657,8.17,8.17,8.17 c4.513,0,8.17-3.658,8.17-8.17v-85.524c0-3.025-1.671-5.803-4.344-7.219l-40.089-21.24l-20.929-112.65v-32.09h57.191 c10.511,0,19.064,8.553,19.064,19.064c0,4.512,3.657,8.17,8.17,8.17h125.277c10.511,0,19.064,8.553,19.064,19.064 c0,10.511-8.553,19.064-19.064,19.064h-21.787c-4.513,0-8.17,3.658-8.17,8.17s3.657,8.17,8.17,8.17h21.787 c19.522,0,35.404-15.883,35.404-35.404C512,271.883,496.118,256,476.596,256z M108.936,130.723H49.021V128 c0-13.516,10.996-24.511,24.511-24.511h10.894c13.515,0,24.511,10.995,24.511,24.511V130.723z M152.511,310.468h-27.234v-65.362 h27.234V310.468z M250.553,196.085h-81.702v-2.723c0-13.516,10.996-24.511,24.511-24.511h32.681 c13.515,0,24.511,10.995,24.511,24.511V196.085z"/> </g> </g> <g> <g> <path d="M193.362,228.766c-4.513,0-8.17,3.658-8.17,8.17v206.979c0,4.512,3.657,8.17,8.17,8.17s8.17-3.658,8.17-8.17V236.936 C201.532,232.424,197.875,228.766,193.362,228.766z"/> </g> </g> <g> <g> <path d="M476.596,343.149h-95.319c-19.522,0-35.404,15.883-35.404,35.404c0,19.521,15.882,35.404,35.404,35.404h95.319 c19.522,0,35.404-15.883,35.404-35.404C512,359.032,496.118,343.149,476.596,343.149z M476.596,397.617h-95.319 c-10.511,0-19.064-8.553-19.064-19.064c0-10.511,8.553-19.064,19.064-19.064h95.319c10.511,0,19.064,8.553,19.064,19.064 C495.66,389.064,487.107,397.617,476.596,397.617z"/> </g> </g> <g> <g> <path d="M313.191,38.128H187.915c-19.522,0-35.404,15.883-35.404,35.404s15.882,35.404,35.404,35.404h125.277 c19.522,0,35.404-15.883,35.404-35.404S332.714,38.128,313.191,38.128z M313.191,92.596H187.915 c-10.511,0-19.064-8.553-19.064-19.064s8.553-19.064,19.064-19.064h125.277c10.511,0,19.064,8.553,19.064,19.064 S323.703,92.596,313.191,92.596z"/> </g> </g> <g> <g> <path d="M84.426,228.766c-4.513,0-8.17,3.658-8.17,8.17v239.66c0,4.512,3.657,8.17,8.17,8.17s8.17-3.658,8.17-8.17v-239.66 C92.596,232.424,88.939,228.766,84.426,228.766z"/> </g> </g> </g>
</svg>