<!DOCTYPE svg PUBLIC "-//W3C//DTD SVG 1.1//EN" "http://www.w3.org/Graphics/SVG/1.1/DTD/svg11.dtd">
<!-- Uploaded to: SVG Repo, www.svgrepo.com, Transformed by: SVG Repo Mixer Tools -->
<svg fill="#000000" width="800px" height="800px" viewBox="0 0 64 64" xmlns="http://www.w3.org/2000/svg">
<g id="SVGRepo_bgCarrier" stroke-width="0"/>
<g id="SVGRepo_tracerCarrier" stroke-linecap="round" stroke-linejoin="round"/>
<g id="SVGRepo_iconCarrier"> <title/> <g id="Colosseum"> <path d="M32,32a4,4,0,0,0-4,4v4a1,1,0,0,0,1,1h6a1,1,0,0,0,1-1V36A4,4,0,0,0,32,32Zm2,7H30V36a2,2,0,0,1,4,0Z"/> <path d="M41,40a1,1,0,0,0,1,1h6a1,1,0,0,0,1-1V36a4,4,0,0,0-8,0Zm2-4a2,2,0,0,1,4,0v3H43Z"/> <path d="M19,32a4,4,0,0,0-4,4v4a1,1,0,0,0,1,1h6a1,1,0,0,0,1-1V36A4,4,0,0,0,19,32Zm2,7H17V36a2,2,0,0,1,4,0Z"/> <path d="M16,26h6a1,1,0,0,0,1-1V21a4,4,0,0,0-8,0v4A1,1,0,0,0,16,26Zm1-5a2,2,0,0,1,4,0v3H17Z"/> <path d="M32,47a4,4,0,0,0-4,4v4a1,1,0,0,0,1,1h6a1,1,0,0,0,1-1V51A4,4,0,0,0,32,47Zm2,7H30V51a2,2,0,0,1,4,0Z"/> <path d="M45,47a4,4,0,0,0-4,4v4a1,1,0,0,0,1,1h6a1,1,0,0,0,1-1V51A4,4,0,0,0,45,47Zm2,7H43V51a2,2,0,0,1,4,0Z"/> <path d="M19,47a4,4,0,0,0-4,4v4a1,1,0,0,0,1,1h6a1,1,0,0,0,1-1V51A4,4,0,0,0,19,47Zm2,7H17V51a2,2,0,0,1,4,0Z"/> <path d="M60,59H57V29a1,1,0,0,0-1-1H42.41L27.71,13.29A1,1,0,0,0,27,13H8a1,1,0,0,0-1,1V59H4a1,1,0,0,0,0,2H60a1,1,0,0,0,0-2ZM9,45H55V58H9Zm46-2H9V30H55ZM26.59,15l13,13H9V15Z"/> </g> </g>
</svg>