<!DOCTYPE svg PUBLIC "-//W3C//DTD SVG 1.1//EN" "http://www.w3.org/Graphics/SVG/1.1/DTD/svg11.dtd">
<!-- Uploaded to: SVG Repo, www.svgrepo.com, Transformed by: SVG Repo Mixer Tools -->
<svg fill="#000000" height="800px" width="800px" version="1.1" id="Layer_1" xmlns="http://www.w3.org/2000/svg" xmlns:xlink="http://www.w3.org/1999/xlink" viewBox="0 0 512 512" xml:space="preserve">
<g id="SVGRepo_bgCarrier" stroke-width="0"/>
<g id="SVGRepo_tracerCarrier" stroke-linecap="round" stroke-linejoin="round"/>
<g id="SVGRepo_iconCarrier"> <g> <g> <path d="M472.653,250.911c-21.344-12.842-48.328-17.581-71.909-20.523c-20.896-2.607-36.656-20.454-36.656-41.516 c0-97.87-79.623-177.493-177.495-177.493h-10.239C78.485,11.378,0,91.001,0,188.871v311.751h512V318.578 C510.545,288.453,497.237,265.703,472.653,250.911z M32.996,188.871c0-38.116,14.961-74.068,42.126-101.234 c27.167-27.166,63.118-42.126,101.234-42.126h10.239c38.116,0,74.068,14.961,101.234,42.126s42.127,63.118,42.127,101.234 c0,38.244,28.616,70.655,66.565,75.388c49.095,6.125,78.491,17.203,81.15,54.319H32.996V188.871z M420.978,466.489H91.022V409.6 h22.756v39.822h34.133V409.6h28.444v39.822h34.133V409.6h28.444v39.822h34.133V409.6h28.444v39.822h34.133V409.6h28.444v39.822 h34.133V409.6h22.756V466.489z M477.867,466.489h-22.756v-91.022H56.889v91.022H34.133V352.711h443.733V466.489z"/> </g> </g> </g>
</svg>