<!DOCTYPE svg PUBLIC "-//W3C//DTD SVG 1.1//EN" "http://www.w3.org/Graphics/SVG/1.1/DTD/svg11.dtd">
<!-- Uploaded to: SVG Repo, www.svgrepo.com, Transformed by: SVG Repo Mixer Tools -->
<svg fill="#000000" height="800px" width="800px" version="1.1" id="Layer_1" xmlns="http://www.w3.org/2000/svg" xmlns:xlink="http://www.w3.org/1999/xlink" viewBox="0 0 512.013 512.013" xml:space="preserve">
<g id="SVGRepo_bgCarrier" stroke-width="0"/>
<g id="SVGRepo_tracerCarrier" stroke-linecap="round" stroke-linejoin="round"/>
<g id="SVGRepo_iconCarrier"> <g> <g> <path d="M511.603,166.615c-0.024-0.127-0.046-0.254-0.072-0.38c-0.102-0.474-0.216-0.948-0.352-1.423L468.513,15.479 C465.896,6.321,457.525,0.006,448,0.006H106.667c-0.494,0-0.982,0.018-1.465,0.05c-0.105,0.007-0.209,0.022-0.314,0.03 c-0.379,0.031-0.757,0.065-1.13,0.115c-0.16,0.021-0.319,0.053-0.479,0.078c-0.306,0.048-0.612,0.096-0.913,0.157 c-0.239,0.048-0.476,0.107-0.714,0.163c-0.202,0.048-0.405,0.093-0.604,0.147c-0.333,0.088-0.662,0.189-0.99,0.294 c-0.077,0.025-0.155,0.048-0.232,0.074c-4.64,1.533-8.809,4.675-11.551,9.425c-0.07,0.12-0.138,0.24-0.206,0.361 c-0.126,0.229-0.253,0.456-0.373,0.692c-0.259,0.502-0.499,1.013-0.718,1.534L23.062,162.262 c-0.068,0.158-0.124,0.321-0.188,0.481c-0.175,0.435-0.335,0.872-0.479,1.309c-0.053,0.163-0.107,0.324-0.156,0.489 c-0.72,2.369-1.009,4.756-0.905,7.081v148.385C9.551,320.006,0,329.558,0,341.34v85.333c0,11.782,9.551,21.333,21.333,21.333 h21.333v42.667c0,11.782,9.551,21.333,21.333,21.333c11.782,0,21.333-9.551,21.333-21.333v-42.667h85.333v42.667 c0,11.782,9.551,21.333,21.333,21.333s21.333-9.551,21.333-21.333v-42.667H320v42.667c0,11.782,9.551,21.333,21.333,21.333 c11.782,0,21.333-9.551,21.333-21.333v-42.667h64v42.667c0,11.782,9.551,21.333,21.333,21.333 c11.782,0,21.333-9.551,21.333-21.333v-42.667h21.333c11.782,0,21.333-9.551,21.333-21.333V341.34V171.317 C512.044,169.772,511.914,168.198,511.603,166.615z M192,192.006h277.333v128H192V192.006z M431.908,42.673l30.476,106.667 H184.734L139.02,42.673H431.908z M106.667,75.496l31.647,73.843H75.02L106.667,75.496z M64,192.006h85.333v128H64V192.006z M469.333,405.34H42.667v-42.667h128h298.667V405.34z"/> </g> </g> </g>
</svg>